<?xml version="1.0" standalone="no"?>
<!DOCTYPE svg PUBLIC "-//W3C//DTD SVG 20010904//EN"
 "http://www.w3.org/TR/2001/REC-SVG-20010904/DTD/svg10.dtd">
<svg version="1.0" xmlns="http://www.w3.org/2000/svg"
 width="256.000000pt" height="256.000000pt" viewBox="0 0 256.000000 256.000000"
 preserveAspectRatio="xMidYMid meet">
<metadata>
Created by potrace 1.16, written by Peter Selinger 2001-2019
</metadata>
<g transform="translate(0.000000,256.000000) scale(0.100000,-0.100000)"
fill="#000000" stroke="none">
<path d="M805 2090 c-259 -93 -473 -170 -477 -172 -7 -3 135 -1265 143 -1272
2 -2 185 -103 407 -226 l402 -222 403 222 c221 122 404 224 406 226 5 4 151
1267 147 1271 -2 3 -957 343 -960 342 0 0 -212 -76 -471 -169z m767 -718 c158
-356 290 -655 294 -665 6 -16 -2 -17 -106 -15 l-112 3 -58 145 -58 145 -253 0
-253 0 -59 -147 -59 -148 -113 0 -112 0 296 665 c163 366 298 665 301 665 3 0
134 -291 292 -648z"/>
<path d="M1198 1392 c-42 -103 -80 -195 -84 -204 -6 -17 6 -18 166 -18 160 0
172 1 166 18 -29 76 -162 392 -166 392 -3 0 -40 -85 -82 -188z"/>
</g>
</svg>
